<svg version="1.1" xmlns="http://www.w3.org/2000/svg" style="display: block;" viewBox="0 0 2048 1365" width="1536" height="1024" preserveAspectRatio="none">
<path transform="translate(0,0)" fill="rgb(0,0,0)" d="M 1018.72 242.392 C 1027.77 242.401 1040.89 244.403 1050.11 245.523 L 1101.14 251.788 L 1264.58 271.297 L 1587.35 310.141 C 1629.84 315.42 1681.17 320.025 1722.73 326.65 C 1730.85 333.641 1748.14 352.31 1756.1 360.416 L 1825.39 430.793 C 1823.8 512.603 1825.37 600.839 1825.43 683.082 C 1838.16 695.926 1855.64 712.277 1866.99 725.547 L 1867.15 925.611 C 1844.79 943.496 1818.02 959.197 1794.74 976.138 C 1784.24 983.774 1771.76 992.104 1760.78 998.849 C 1734.69 999.645 1704.77 998.952 1678.45 998.956 L 1517.1 998.971 L 1030.15 998.978 L 285.901 998.874 C 258.059 981.136 231.058 961.597 203.581 943.266 C 195.213 937.683 186.571 931.727 178.816 925.365 L 178.749 725.439 C 185.891 716.016 212.06 691.049 221.256 681.951 C 222.533 598.797 220.91 513.552 221.404 430.09 C 254.098 395.702 289.979 361.393 323.419 327.358 C 346.574 323.201 379.381 320.145 403.286 317.214 L 564.549 297.436 L 866.929 261.005 C 915.977 255.134 970.078 247.108 1018.72 242.392 z"/>
<path transform="translate(0,0)" fill="rgb(254,93,0)" d="M 1014.54 259.377 C 1023.45 257.95 1057.15 262.86 1068 264.124 L 1192.52 279.204 L 1498.18 315.456 C 1568.46 324.043 1642.65 334.651 1712.78 341.728 C 1725.18 352.288 1745.56 374.784 1757.8 387.253 C 1773.69 403.442 1792.95 421.637 1807.92 438.075 L 1807.79 687.193 C 1820.62 701.953 1835.63 715.774 1849.1 730.283 C 1850.08 792.544 1848.61 856.044 1849.32 918.568 C 1818.81 939.552 1788.18 960.372 1757.44 981.027 L 1033.5 980.967 L 289.442 981 C 259.708 961.291 226.011 939.103 197.341 918.177 C 195.832 857.741 197.184 790.784 197.27 729.814 C 209.785 715.901 225.67 700.946 238.864 687.094 L 238.914 437.777 C 248.508 427.249 261.984 414.489 272.226 404.223 L 334.796 341.85 C 365.388 339.331 399.9 333.901 430.81 330.014 L 600.814 309.078 L 1014.54 259.377 z"/>
<path transform="translate(0,0)" fill="rgb(0,0,0)" d="M 1021.32 281.388 C 1027.23 280.711 1066.28 285.995 1074.56 286.998 L 1191.27 300.763 C 1360.95 320.013 1530.46 340.732 1699.79 362.917 C 1728.46 390.18 1757.4 420.382 1785.23 448.611 L 1785.37 693.795 L 1828.97 737.52 L 1829.08 751.947 L 1025.5 751.947 L 217.259 751.922 L 217.354 737.348 C 232.003 723.248 246.474 708.964 260.763 694.498 C 259.572 663.271 260.262 628.246 260.257 596.765 L 260.439 447.895 C 287.819 420.837 317.609 389.023 345.417 363.153 C 367.028 359.743 393.473 357.281 415.644 354.548 L 564.446 336.243 L 1021.32 281.388 z"/>
<path transform="translate(0,0)" fill="rgb(254,93,0)" d="M 884.998 339.967 L 1162.75 340.017 C 1184.39 360.32 1211.33 386.499 1232.03 407.601 L 1232.05 651.282 C 1213.17 666.59 1184.67 694.611 1163.89 709.804 C 1162.46 709.914 1161.25 710.007 1160.25 710.083 L 880.594 710.098 C 860.022 689.97 835.009 670.369 813.684 650.424 L 813.45 408.458 C 835.108 386.088 862.21 361.958 884.998 339.967 z"/>
<path transform="translate(0,0)" fill="rgb(0,0,0)" d="M 963.656 413.331 C 1001.13 411.964 1046.49 413.199 1084.59 413.196 L 1112.17 440.721 C 1111.48 501.073 1112.11 562.738 1112.1 623.191 C 1106.72 628.895 1080.86 654.594 1074.98 656.578 C 1059.61 658.528 1037.29 663.879 1023.19 664.728 C 1012.76 665.356 980.633 658.17 968.619 655.824 C 957.333 644.74 945.67 634.364 934.596 623.031 C 933.506 604.184 934.212 577.684 934.22 558.357 L 934.354 441.013 C 942.12 432.638 955.004 421.451 963.656 413.331 z"/>
<path transform="translate(0,0)" fill="rgb(254,93,0)" d="M 1024.19 442.731 C 1030.89 454.307 1040.28 476.662 1046.51 489.669 C 1055.84 510.663 1066.88 530.992 1074.95 552.516 C 1091.48 596.632 1073.88 636.042 1024.56 638.364 C 994.881 637.319 971.081 622.401 967.467 591.295 C 964.106 562.357 979.994 534.925 991.955 509.592 C 1002.5 487.208 1013.25 464.92 1024.19 442.731 z"/>
<path transform="translate(0,0)" fill="rgb(0,0,0)" d="M 1004.58 520.734 C 1005.58 524.583 1001.23 540.163 1000.13 544.495 C 995.187 564.019 987.342 586.784 1005.86 602.004 C 1012.34 607.292 1020.67 609.765 1029 608.869 C 1037.84 607.919 1045.93 603.43 1051.42 596.424 C 1062.29 582.398 1058.49 563.511 1056.55 547.106 C 1060.46 556.226 1062.72 563.175 1064.85 572.766 C 1065.9 584.514 1065.05 594.46 1058.32 604.571 C 1052.77 612.865 1044.14 618.601 1034.35 620.505 C 1023 622.782 1010.54 620.491 1000.94 613.953 C 991.388 607.51 984.903 597.421 983.012 586.053 C 979.535 565.604 992.736 537.127 1004.58 520.734 z"/>
<path transform="translate(0,0)" fill="rgb(254,93,0)" d="M 622.118 371.426 C 622.782 371.199 622.892 371.122 623.69 371.074 C 629.711 370.711 673.67 404.921 680.797 410.463 C 680.625 430.046 681.215 450.588 680.532 470.067 C 644.296 472.515 605.715 478.241 569.876 480.097 C 570.448 471.594 570.61 465.153 570.505 456.629 C 567.844 453.414 565.377 451.441 562.226 448.737 C 549.602 450.656 536.12 451.243 523.353 452.538 C 498.232 455.088 472.808 457.043 447.738 459.935 C 444.927 462.153 442.552 464.73 440.039 467.287 L 440.034 504.868 C 442.16 507.207 444.796 509.815 447.022 512.119 C 499.388 511.318 552.109 507.131 604.494 505.556 C 612.189 505.324 620.029 505.009 627.66 504.004 L 679.932 543.004 L 679.979 655.002 C 663.549 670.788 639.525 691.213 622.004 706.232 L 402.701 706.389 L 388.574 706.58 C 370.823 692.005 350.327 676.527 331.998 662.612 L 331.937 606.769 C 367.635 606.694 403.913 605.137 440.012 604.948 L 440.086 630.397 L 447.063 637.066 C 480.275 637.831 515.067 634.852 548.369 634.834 C 574.822 634.819 569.148 626.06 569.262 604.778 C 569.305 596.818 571.808 581.517 559.851 581.038 C 540.852 580.658 521.511 580.885 502.445 580.901 C 461.604 581.18 420.762 580.84 379.932 579.88 C 365.421 567.824 347.24 554.898 331.924 543.475 L 331.877 443.317 C 345.307 431.55 372.404 407.401 386.211 397.48 C 415.561 395.108 446.799 391.218 476.136 387.948 L 622.118 371.426 z"/>
<path transform="translate(0,0)" fill="rgb(254,93,0)" d="M 1422.22 370.774 C 1429.83 370.248 1475.85 376.46 1487.59 377.753 L 1662.65 397.453 C 1678.54 412.972 1698.48 427.284 1714.81 443.278 L 1714.67 497.711 C 1709.38 497.119 1704.03 496.886 1698.72 496.587 C 1669.36 494.937 1640.08 492.134 1610.73 490.337 L 1610.76 467.572 C 1608.8 465.027 1606.54 462.876 1604.29 460.592 C 1565.18 456.326 1526.84 451.397 1487.4 448.454 C 1484.87 450.376 1482.31 453.179 1480.05 455.475 L 1480.01 495.187 L 1486.68 502.144 C 1529.88 505.75 1614.78 515.206 1660.42 522.521 C 1664.81 523.223 1706.82 558.233 1714.41 564.572 C 1715.1 596.287 1714.47 630.244 1714.59 662.203 L 1660.95 705.192 C 1659.46 706.382 1657.23 707.57 1655.28 707.592 C 1578.6 708.465 1501.93 706.322 1425.22 706.501 C 1406.39 690.141 1386.16 672.358 1367.93 655.442 L 1367.92 598.643 C 1405.58 600.523 1443.56 601.429 1481.13 603.484 C 1481.02 611.113 1479.39 625.426 1483.65 630.481 C 1494.55 635.038 1587.44 637.224 1603.26 637.073 C 1605.88 634.856 1608.38 632.076 1610.77 629.576 C 1610.9 620.561 1612.59 598.208 1608.11 591.319 C 1599.24 585.468 1530.05 579.638 1514.43 577.968 C 1485.38 574.862 1450.31 569.161 1421.54 567.595 C 1411.52 560.894 1378.84 531.735 1367.89 522.577 L 1367.86 409.894 L 1422.22 370.774 z"/>
<path transform="translate(0,0)" fill="rgb(254,93,0)" d="M 716.107 638.332 C 736.44 638.661 756.775 638.687 777.108 638.411 L 777.05 698.583 L 715.945 698.565 L 716.107 638.332 z"/>
<path transform="translate(0,0)" fill="rgb(254,93,0)" d="M 1272 638.056 C 1291.55 638.59 1311.11 638.778 1330.67 638.621 C 1330.7 645.223 1331.75 695.707 1329.66 698.609 C 1310.49 698.395 1291.14 698.552 1271.96 698.578 L 1272 638.056 z"/>
<path transform="translate(0,0)" fill="rgb(0,0,0)" d="M 217.17 765.95 L 1829.1 765.986 C 1829.29 787.259 1829.02 808.873 1828.94 830.172 L 1802.83 822.007 L 1802.85 845.37 C 1811.98 847.998 1820.13 850.379 1829.07 853.568 C 1828.88 871.745 1828.83 889.923 1828.94 908.1 C 1817.49 915.259 1805.96 922.845 1794.59 930.166 C 1781.3 938.792 1767.93 947.275 1754.46 955.611 L 840.954 955.586 L 492.847 955.544 C 426.07 955.536 356.744 956.45 290.199 954.996 C 266.095 938.756 241.25 923.708 217.271 907.451 C 217.164 889.67 217.165 871.888 217.274 854.107 C 225.471 850.948 236.909 847.602 245.477 844.816 L 245.301 822.063 C 235.759 825.221 226.864 828.093 217.19 830.796 L 217.17 765.95 z"/>
<path transform="translate(0,0)" fill="rgb(254,254,254)" d="M 822.348 799.615 L 898.781 799.661 C 905.232 804.297 909.971 808.344 915.975 813.511 L 915.996 844.779 L 903.658 853.034 C 908.232 856.135 912.767 859.295 917.26 862.513 C 917.322 868.667 917.948 890.479 916.391 895.13 C 910.571 900.476 907.214 903.096 900.883 907.696 L 822.698 907.801 C 821.934 872.078 823.023 835.654 822.348 799.615 z"/>
<path transform="translate(0,0)" fill="rgb(0,0,0)" d="M 852.176 822.128 C 863.478 822.337 874.782 822.46 886.086 822.497 C 886.121 829.009 886.059 835.521 885.901 842.031 L 852.266 842.119 C 852.436 835.502 852.265 828.755 852.176 822.128 z"/>
<path transform="translate(0,0)" fill="rgb(0,0,0)" d="M 852.211 864.998 L 886.398 865.096 C 886.599 871.704 886.565 877.151 886.37 883.745 C 875.338 884.05 863.323 883.848 852.21 883.885 C 852.52 878.215 852.253 870.801 852.211 864.998 z"/>
<path transform="translate(0,0)" fill="rgb(254,254,254)" d="M 760.306 799.626 L 791.997 799.708 L 792.017 907.736 L 763.625 907.68 L 763.762 882.818 L 763.91 845.469 C 757.804 857.157 750.742 868.585 744.466 880.213 C 741.451 885.799 737.513 894.13 730.233 893.831 C 721.516 890.83 704.637 855.202 698.942 844.657 C 700.031 863.962 699.223 887.699 699.579 907.718 L 670.809 907.797 L 670.756 799.718 L 704.789 799.682 C 713.926 818.296 722.967 836.957 731.912 855.665 C 740.387 841.17 752.157 815.63 760.306 799.626 z"/>
<path transform="translate(0,0)" fill="rgb(254,254,254)" d="M 1649.27 799.722 L 1726.03 799.815 C 1731.9 804.897 1737.68 809.586 1742.72 815.506 L 1742.81 861.796 C 1737.9 865.309 1732.95 868.759 1727.96 872.143 C 1734.02 884.071 1740.2 895.943 1746.48 907.756 L 1728.52 907.63 L 1714.48 907.748 C 1708.82 896.772 1703.23 885.76 1697.71 874.711 L 1679.91 874.824 L 1679.96 907.75 L 1649.31 907.795 C 1648.78 872.209 1649.27 835.406 1649.27 799.722 z"/>
<path transform="translate(0,0)" fill="rgb(0,0,0)" d="M 1680.07 822.421 L 1712.09 822.471 C 1712.16 830.932 1712.63 843.748 1711.6 851.752 C 1701.47 852.068 1690.16 851.853 1679.93 851.885 L 1680.07 822.421 z"/>
<path transform="translate(0,0)" fill="rgb(254,254,254)" d="M 1003.98 799.739 L 1035.49 799.623 C 1046.82 818.303 1063.51 841.368 1076.04 860.301 L 1075.72 799.752 L 1104.88 799.685 C 1103.73 833.481 1104.78 873.425 1104.8 907.7 L 1075.59 907.663 C 1061.88 889.737 1044.13 864.085 1032.11 845.137 C 1032.61 865.511 1032.28 887.249 1032.34 907.735 L 1004.03 907.799 L 1003.98 799.739 z"/>
<path transform="translate(0,0)" fill="rgb(254,254,254)" d="M 331.649 799.71 L 410.951 799.735 L 426.69 813.04 C 426.895 829.223 426.699 845.831 426.696 862.049 C 419.927 867.492 415.42 871.19 407.991 875.716 L 393.75 875.793 L 363.943 875.819 L 363.991 907.671 L 331.812 907.828 L 331.649 799.71 z"/>
<path transform="translate(0,0)" fill="rgb(0,0,0)" d="M 363.918 823.84 L 397.24 823.821 L 397.199 851.825 L 363.943 851.903 L 363.918 823.84 z"/>
<path transform="translate(0,0)" fill="rgb(254,254,254)" d="M 1149.08 799.901 C 1166.56 798.788 1193.39 799.662 1211.56 799.692 C 1217.92 803.739 1223.45 808.637 1229.22 813.483 L 1229.26 834.386 L 1200.08 834.434 L 1199.96 822.239 C 1187.56 822.36 1175.16 822.355 1162.76 822.224 L 1162.79 883.85 C 1175.21 883.939 1187.63 883.884 1200.06 883.684 C 1200.17 878.665 1200.04 873.265 1200.02 868.212 L 1180.73 868.784 L 1180.71 852.75 C 1180.61 849.501 1180.14 847.247 1181.74 844.528 C 1187.63 843.43 1221.24 844.051 1229.22 844.083 L 1229.25 893.023 C 1223.55 898.29 1218.5 902.62 1212.5 907.543 C 1193.47 908.427 1169.14 907.725 1149.71 907.714 C 1143.71 903.278 1138.15 898.431 1132.47 893.599 L 1132.31 813.1 C 1137.36 808.706 1143.72 804.042 1149.08 799.901 z"/>
<path transform="translate(0,0)" fill="rgb(254,93,0)" d="M 1336.3 800.159 C 1349.08 799.753 1368.56 797.395 1378.02 807.019 C 1386.56 815.699 1385.18 827.231 1384.98 838.254 C 1378.04 848.03 1373.45 849.479 1362.93 855.34 L 1375.89 868.358 C 1377.01 863.347 1377.66 858.159 1378.38 853.071 L 1400.35 853.115 C 1399.23 865.433 1397.14 872.233 1391.91 883.23 C 1396.94 888.659 1409.69 901.265 1413.43 906.602 L 1412.32 907.461 L 1386.86 907.364 C 1383.55 903.881 1379.97 901.012 1376.3 897.926 C 1361.01 910.045 1344.9 909.108 1326.24 905.938 C 1319.93 904.256 1311.66 898.867 1309.11 892.73 C 1300.18 871.262 1308.86 858.242 1326.99 848.783 C 1309.98 832.602 1311.97 807.106 1336.3 800.159 z"/>
<path transform="translate(0,0)" fill="rgb(0,0,0)" d="M 1339.02 861.603 C 1341.23 862.389 1360.14 880.825 1360.84 882.77 C 1358.72 885.359 1355.4 886.177 1352.14 887.441 C 1350.26 887.645 1348.36 887.816 1346.47 887.952 C 1327.73 889.231 1324.71 873.264 1339.02 861.603 z"/>
<path transform="translate(0,0)" fill="rgb(0,0,0)" d="M 1343.95 820.078 L 1344.77 819.998 C 1361.16 818.49 1368.45 826.932 1356.05 839.63 C 1348.3 843.671 1334.32 831.8 1343.95 820.078 z"/>
<path transform="translate(0,0)" fill="rgb(254,254,254)" d="M 611.025 799.584 L 641.831 799.734 L 641.852 823.983 L 641.911 893.476 C 636.089 898.851 631.449 902.756 625.23 907.665 C 605.535 908.157 583.869 907.713 564.044 907.613 C 558.033 903.31 551.27 897.849 545.332 893.285 C 544.594 863.135 545.252 830.053 545.259 799.683 L 575.992 799.712 L 576.007 883.153 C 587.569 882.945 599.545 883.154 611.142 883.208 L 611.025 799.584 z"/>
<path transform="translate(0,0)" fill="rgb(254,254,254)" d="M 1499.07 799.688 L 1538.31 799.718 C 1541.42 810.842 1546.7 825.252 1550.41 836.419 L 1574.11 907.68 L 1542.16 907.652 C 1540.49 901.378 1538.25 894.663 1536.3 888.424 C 1523.53 888.767 1510.75 888.74 1497.97 888.342 C 1496.43 894.639 1493.7 901.581 1491.46 907.745 L 1462.41 907.771 C 1474.35 876.249 1488.82 831.896 1499.07 799.688 z"/>
<path transform="translate(0,0)" fill="rgb(0,0,0)" d="M 1517.55 826.826 C 1519.9 829.828 1528.59 860.547 1530.18 865.84 L 1519.1 865.892 L 1504.3 865.898 C 1508.91 853.304 1513.25 839.599 1517.55 826.826 z"/>
<path transform="translate(0,0)" fill="rgb(254,254,254)" d="M 450.739 799.73 L 482.333 799.71 C 481.785 826.697 482.244 855.783 482.229 882.917 L 527.986 882.843 L 527.987 907.741 C 505.357 907.484 472.294 909.044 450.757 907.445 L 450.739 799.73 z"/>
<path transform="translate(0,0)" fill="rgb(254,254,254)" d="M 941.956 799.661 L 973.879 799.696 L 973.807 907.708 L 941.919 907.741 L 941.956 799.661 z"/>
<path transform="translate(0,0)" fill="rgb(254,254,254)" d="M 1590.23 799.765 C 1600.06 799.463 1611.29 799.715 1621.23 799.698 L 1621.26 907.782 L 1590.39 907.788 C 1589.75 872.288 1590.23 835.336 1590.23 799.765 z"/>
</svg>